<svg width="705" height="243" viewBox="0 0 705 243" fill="none" xmlns="http://www.w3.org/2000/svg">
<path d="M260.494 125.004C257.898 125.004 255.538 125.515 253.414 126.538C251.369 127.482 249.599 128.819 248.104 130.55C246.924 132.045 246.019 133.775 245.39 135.742C244.761 137.709 244.564 139.793 244.8 141.996C249.284 140.265 253.729 138.535 258.134 136.804C262.618 135.073 267.102 133.382 271.586 131.73C270.327 129.685 268.754 128.072 266.866 126.892C264.978 125.633 262.854 125.004 260.494 125.004ZM275.716 157.69C273.749 159.657 271.468 161.191 268.872 162.292C266.355 163.393 263.562 163.944 260.494 163.944C257.269 163.944 254.201 163.354 251.29 162.174C248.458 160.915 246.019 159.263 243.974 157.218C241.85 155.094 240.159 152.655 238.9 149.902C237.72 147.07 237.13 144.041 237.13 140.816C237.13 137.669 237.72 134.68 238.9 131.848C240.159 129.016 241.85 126.538 243.974 124.414C246.019 122.369 248.458 120.756 251.29 119.576C254.201 118.317 257.269 117.688 260.494 117.688C262.933 117.688 265.253 118.16 267.456 119.104C269.659 120.048 271.665 121.307 273.474 122.88C275.205 124.532 276.699 126.459 277.958 128.662C279.295 130.865 280.318 133.264 281.026 135.86C275.283 138.063 269.58 140.265 263.916 142.468C258.252 144.592 252.549 146.755 246.806 148.958C248.143 151.318 249.992 153.206 252.352 154.622C254.712 156.038 257.426 156.746 260.494 156.746C262.618 156.746 264.585 156.392 266.394 155.684C268.203 154.897 269.777 153.796 271.114 152.38L275.716 157.69ZM327.906 158.87C325.782 160.443 323.501 161.702 321.062 162.646C318.623 163.511 315.988 163.944 313.156 163.944C309.852 163.944 306.784 163.354 303.952 162.174C301.12 160.915 298.681 159.224 296.636 157.1C294.512 155.055 292.821 152.655 291.562 149.902C290.382 147.07 289.792 144.041 289.792 140.816C289.792 137.669 290.382 134.68 291.562 131.848C292.742 129.016 294.433 126.577 296.636 124.532C298.681 122.408 301.12 120.756 303.952 119.576C306.784 118.317 309.852 117.688 313.156 117.688C316.067 117.688 318.781 118.16 321.298 119.104C323.815 119.969 326.057 121.189 328.024 122.762V135.506H321.298V127.128C320.118 126.42 318.82 125.909 317.404 125.594C316.067 125.201 314.651 125.004 313.156 125.004C310.953 125.004 308.908 125.358 307.02 126.066C305.132 126.774 303.519 127.797 302.182 129.134C300.609 130.629 299.389 132.359 298.524 134.326C297.659 136.293 297.226 138.456 297.226 140.816C297.226 143.097 297.619 145.221 298.406 147.188C299.271 149.155 300.451 150.846 301.946 152.262C303.362 153.599 305.014 154.701 306.902 155.566C308.869 156.353 310.953 156.746 313.156 156.746C315.123 156.746 316.932 156.471 318.584 155.92C320.315 155.291 321.888 154.386 323.304 153.206L327.906 158.87ZM360.776 163H336.232V155.92H344.846V125.83H336.232V118.75H352.28V155.92H360.776V163ZM353.696 102.348C353.696 103.764 353.184 104.983 352.162 106.006C351.139 106.95 349.998 107.422 348.74 107.422C347.481 107.422 346.301 106.95 345.2 106.006C344.177 104.983 343.666 103.764 343.666 102.348C343.666 100.853 344.177 99.634 345.2 98.69C346.301 97.6673 347.481 97.156 348.74 97.156C349.998 97.156 351.139 97.6673 352.162 98.69C353.184 99.634 353.696 100.853 353.696 102.348ZM370.135 192.5V185.42H378.041V125.83H369.073V118.75H384.177C384.177 120.166 384.217 121.543 384.295 122.88C384.453 124.139 384.531 125.437 384.531 126.774C385.633 124.729 387.599 122.723 390.431 120.756C393.342 118.789 397 117.806 401.405 117.806C404.709 117.806 407.777 118.435 410.609 119.694C413.52 120.874 416.037 122.487 418.161 124.532C420.285 126.656 421.937 129.134 423.117 131.966C424.297 134.719 424.887 137.669 424.887 140.816C424.887 144.041 424.297 147.07 423.117 149.902C421.937 152.655 420.285 155.094 418.161 157.218C416.037 159.342 413.52 161.033 410.609 162.292C407.777 163.472 404.709 164.062 401.405 164.062C399.203 164.062 397.157 163.787 395.269 163.236C393.381 162.685 391.729 161.977 390.313 161.112C388.819 160.325 387.678 159.578 386.891 158.87C386.183 158.083 385.633 157.257 385.239 156.392C385.318 156.864 385.357 157.375 385.357 157.926C385.436 158.398 385.475 158.87 385.475 159.342V185.42H394.679V192.5H370.135ZM401.405 125.004C399.045 125.004 396.882 125.437 394.915 126.302C392.949 127.089 391.257 128.229 389.841 129.724C388.425 131.14 387.324 132.831 386.537 134.798C385.829 136.686 385.475 138.692 385.475 140.816C385.475 143.176 385.869 145.379 386.655 147.424C387.521 149.391 388.74 151.082 390.313 152.498C391.729 153.835 393.381 154.897 395.269 155.684C397.157 156.392 399.203 156.746 401.405 156.746C403.608 156.746 405.653 156.392 407.541 155.684C409.429 154.897 411.081 153.875 412.497 152.616C413.992 151.2 415.172 149.469 416.037 147.424C416.981 145.379 417.453 143.176 417.453 140.816C417.453 138.456 416.981 136.293 416.037 134.326C415.172 132.281 413.953 130.511 412.379 129.016C410.963 127.836 409.311 126.892 407.423 126.184C405.535 125.397 403.529 125.004 401.405 125.004ZM456.508 125.004C453.912 125.004 451.552 125.515 449.428 126.538C447.382 127.482 445.612 128.819 444.118 130.55C442.938 132.045 442.033 133.775 441.404 135.742C440.774 137.709 440.578 139.793 440.814 141.996C445.298 140.265 449.742 138.535 454.148 136.804C458.632 135.073 463.116 133.382 467.6 131.73C466.341 129.685 464.768 128.072 462.88 126.892C460.992 125.633 458.868 125.004 456.508 125.004ZM471.73 157.69C469.763 159.657 467.482 161.191 464.886 162.292C462.368 163.393 459.576 163.944 456.508 163.944C453.282 163.944 450.214 163.354 447.304 162.174C444.472 160.915 442.033 159.263 439.988 157.218C437.864 155.094 436.172 152.655 434.914 149.902C433.734 147.07 433.144 144.041 433.144 140.816C433.144 137.669 433.734 134.68 434.914 131.848C436.172 129.016 437.864 126.538 439.988 124.414C442.033 122.369 444.472 120.756 447.304 119.576C450.214 118.317 453.282 117.688 456.508 117.688C458.946 117.688 461.267 118.16 463.47 119.104C465.672 120.048 467.678 121.307 469.488 122.88C471.218 124.532 472.713 126.459 473.972 128.662C475.309 130.865 476.332 133.264 477.04 135.86C471.297 138.063 465.594 140.265 459.93 142.468C454.266 144.592 448.562 146.755 442.82 148.958C444.157 151.318 446.006 153.206 448.366 154.622C450.726 156.038 453.44 156.746 456.508 156.746C458.632 156.746 460.598 156.392 462.408 155.684C464.217 154.897 465.79 153.796 467.128 152.38L471.73 157.69ZM510.35 163H485.806V155.92H495.246C500.831 142.547 506.416 129.331 512.002 116.272C517.666 103.213 523.29 89.9973 528.876 76.624C534.461 89.9973 540.046 103.213 545.632 116.272C551.296 129.331 556.92 142.547 562.506 155.92H571.946V163H547.402V155.92H554.954C552.987 151.436 551.06 146.952 549.172 142.468C547.362 137.984 545.514 133.5 543.626 129.016H514.126C511.844 134.444 509.917 138.928 508.344 142.468C506.849 146.008 504.961 150.492 502.68 155.92H510.35V163ZM527.578 96.802C525.847 100.971 524.077 105.219 522.268 109.546C520.537 113.794 518.846 117.924 517.194 121.936H540.558L529.938 96.802L528.758 93.144C528.522 94.088 528.286 94.8353 528.05 95.386C527.892 95.9367 527.735 96.4087 527.578 96.802ZM581.245 192.5V185.42H589.151V125.83H580.183V118.75H595.287C595.287 120.166 595.326 121.543 595.405 122.88C595.562 124.139 595.641 125.437 595.641 126.774C596.742 124.729 598.709 122.723 601.541 120.756C604.451 118.789 608.109 117.806 612.515 117.806C615.819 117.806 618.887 118.435 621.719 119.694C624.629 120.874 627.147 122.487 629.271 124.532C631.395 126.656 633.047 129.134 634.227 131.966C635.407 134.719 635.997 137.669 635.997 140.816C635.997 144.041 635.407 147.07 634.227 149.902C633.047 152.655 631.395 155.094 629.271 157.218C627.147 159.342 624.629 161.033 621.719 162.292C618.887 163.472 615.819 164.062 612.515 164.062C610.312 164.062 608.267 163.787 606.379 163.236C604.491 162.685 602.839 161.977 601.423 161.112C599.928 160.325 598.787 159.578 598.001 158.87C597.293 158.083 596.742 157.257 596.349 156.392C596.427 156.864 596.467 157.375 596.467 157.926C596.545 158.398 596.585 158.87 596.585 159.342V185.42H605.789V192.5H581.245ZM612.515 125.004C610.155 125.004 607.991 125.437 606.025 126.302C604.058 127.089 602.367 128.229 600.951 129.724C599.535 131.14 598.433 132.831 597.647 134.798C596.939 136.686 596.585 138.692 596.585 140.816C596.585 143.176 596.978 145.379 597.765 147.424C598.63 149.391 599.849 151.082 601.423 152.498C602.839 153.835 604.491 154.897 606.379 155.684C608.267 156.392 610.312 156.746 612.515 156.746C614.717 156.746 616.763 156.392 618.651 155.684C620.539 154.897 622.191 153.875 623.607 152.616C625.101 151.2 626.281 149.469 627.147 147.424C628.091 145.379 628.563 143.176 628.563 140.816C628.563 138.456 628.091 136.293 627.147 134.326C626.281 132.281 625.062 130.511 623.489 129.016C622.073 127.836 620.421 126.892 618.533 126.184C616.645 125.397 614.639 125.004 612.515 125.004ZM645.315 192.5V185.42H653.221V125.83H644.253V118.75H659.357C659.357 120.166 659.396 121.543 659.475 122.88C659.632 124.139 659.711 125.437 659.711 126.774C660.812 124.729 662.779 122.723 665.611 120.756C668.522 118.789 672.18 117.806 676.585 117.806C679.889 117.806 682.957 118.435 685.789 119.694C688.7 120.874 691.217 122.487 693.341 124.532C695.465 126.656 697.117 129.134 698.297 131.966C699.477 134.719 700.067 137.669 700.067 140.816C700.067 144.041 699.477 147.07 698.297 149.902C697.117 152.655 695.465 155.094 693.341 157.218C691.217 159.342 688.7 161.033 685.789 162.292C682.957 163.472 679.889 164.062 676.585 164.062C674.382 164.062 672.337 163.787 670.449 163.236C668.561 162.685 666.909 161.977 665.493 161.112C663.998 160.325 662.858 159.578 662.071 158.87C661.363 158.083 660.812 157.257 660.419 156.392C660.498 156.864 660.537 157.375 660.537 157.926C660.616 158.398 660.655 158.87 660.655 159.342V185.42H669.859V192.5H645.315ZM676.585 125.004C674.225 125.004 672.062 125.437 670.095 126.302C668.128 127.089 666.437 128.229 665.021 129.724C663.605 131.14 662.504 132.831 661.717 134.798C661.009 136.686 660.655 138.692 660.655 140.816C660.655 143.176 661.048 145.379 661.835 147.424C662.7 149.391 663.92 151.082 665.493 152.498C666.909 153.835 668.561 154.897 670.449 155.684C672.337 156.392 674.382 156.746 676.585 156.746C678.788 156.746 680.833 156.392 682.721 155.684C684.609 154.897 686.261 153.875 687.677 152.616C689.172 151.2 690.352 149.469 691.217 147.424C692.161 145.379 692.633 143.176 692.633 140.816C692.633 138.456 692.161 136.293 691.217 134.326C690.352 132.281 689.132 130.511 687.559 129.016C686.143 127.836 684.491 126.892 682.603 126.184C680.715 125.397 678.709 125.004 676.585 125.004Z" fill="#41755B"/>
<path d="M226.902 80.9749C226.422 73.7317 224.467 66.6638 221.159 60.2073C217.85 53.7508 213.258 48.0426 207.665 43.4347C202.072 38.8268 195.597 35.417 188.639 33.4156C181.681 31.4142 174.388 30.8637 167.21 31.7979C161.729 22.155 153.804 14.1358 144.239 8.55192C134.674 2.96808 123.807 0.0179121 112.74 8.13091e-05C101.672 -0.0177495 90.7961 2.89739 81.213 8.45038C71.6299 14.0034 63.6798 21.9971 58.1676 31.6222C56.4339 31.4496 54.7062 31.3625 52.9994 31.3625C38.948 31.3784 25.4766 36.9835 15.5407 46.9482C5.60479 56.9129 0.0158505 70.4233 0 84.5155C0 112.008 14.4431 132.044 37.6895 136.802C41.0721 137.414 44.1354 139.192 46.3508 141.828C48.5662 144.463 49.7946 147.792 49.824 151.239V220.102C49.8311 226.173 52.2388 231.993 56.5191 236.285C60.7993 240.578 66.6025 242.993 72.6556 243H152.614C158.668 242.993 164.471 240.578 168.751 236.285C173.031 231.993 175.439 226.173 175.446 220.102V151.413C175.468 148.09 176.609 144.871 178.682 142.278C180.756 139.686 183.641 137.871 186.871 137.128C210.177 131.488 228.508 105.775 226.902 80.9749ZM184.42 126.91C171.114 128.974 157.64 129.743 144.187 129.205C142.798 129.142 141.442 129.636 140.416 130.576C139.39 131.517 138.779 132.828 138.717 134.22C138.655 135.613 139.147 136.973 140.085 138.002C141.023 139.031 142.33 139.644 143.718 139.706C146.701 139.84 154.348 139.897 157.043 139.897C161.037 139.897 164.678 139.765 167.956 139.562C165.991 143.201 164.962 147.275 164.961 151.413V209.557C161.581 209.85 156.056 210.228 147.702 210.535V174.006C147.702 172.612 147.15 171.276 146.167 170.29C145.185 169.305 143.852 168.751 142.462 168.751C141.072 168.751 139.74 169.305 138.757 170.29C137.774 171.276 137.222 172.612 137.222 174.006V210.833C131.85 210.949 125.667 211.032 118.603 211.059V174.006C118.603 172.612 118.051 171.276 117.069 170.29C116.086 169.305 114.753 168.751 113.363 168.751C111.974 168.751 110.641 169.305 109.658 170.29C108.675 171.276 108.123 172.612 108.123 174.006V211.027C101.027 210.928 94.8495 210.638 89.5032 210.228V174.006C89.5032 172.612 88.9511 171.276 87.9684 170.29C86.9857 169.305 85.6528 168.751 84.2631 168.751C82.8733 168.751 81.5405 169.305 80.5578 170.29C79.5751 171.276 79.023 172.612 79.023 174.006V209.171C72.6572 208.52 66.3798 207.183 60.2996 205.183V151.239C60.2295 145.381 58.152 139.725 54.4159 135.221C50.6797 130.716 45.5123 127.639 39.781 126.503C18.1785 122.08 10.4741 101.913 10.4741 84.517C10.4868 73.2114 14.9706 62.3725 22.9418 54.3782C30.9129 46.3839 41.7205 41.8872 52.9935 41.8745C53.4276 41.8745 53.8708 41.918 54.3079 41.933C53.421 46.2833 53.0029 50.7167 53.0608 55.1567C53.0738 56.5419 53.6317 57.8659 54.6129 58.8407C55.5942 59.8156 56.9196 60.3624 58.3009 60.3624H58.3533C59.7428 60.3489 61.0701 59.7825 62.0432 58.7877C63.0163 57.7928 63.5556 56.4511 63.5424 55.0576C63.3794 49.7881 64.1525 44.5315 65.8256 39.5336C70.1826 30.7869 76.8894 23.4349 85.1899 18.3064C93.4904 13.178 103.054 10.4771 112.804 10.5083C122.553 10.5395 132.099 13.3016 140.367 18.4831C148.635 23.6646 155.294 31.0595 159.596 39.8339C161.286 44.7211 162.057 49.8806 161.868 55.0501C161.862 55.7402 161.991 56.4249 162.248 57.065C162.506 57.7051 162.886 58.2881 163.368 58.7807C163.85 59.2733 164.424 59.6658 165.057 59.9359C165.691 60.206 166.371 60.3484 167.059 60.3549H167.11C168.491 60.3549 169.817 59.8081 170.798 58.8332C171.779 57.8583 172.337 56.5344 172.35 55.1492C172.418 50.7312 172 46.3192 171.104 41.9931C173.688 41.8114 176.282 41.8616 178.857 42.1432C188.717 43.3401 197.855 47.9356 204.71 55.1435C211.565 62.3515 215.71 71.7241 216.435 81.6581C217.718 101.325 202.753 122.469 184.42 126.91Z" fill="#41755B"/>
<path d="M198 133L259 236" stroke="#41755B" stroke-width="11" stroke-linecap="round"/>
<path d="M167 34V229" stroke="#41755B" stroke-width="11" stroke-linecap="round"/>
</svg>
